<mxfile host="app.diagrams.net" modified="2022-07-24T15:24:28.382Z" agent="5.0 (Windows NT 10.0; Win64; x64) AppleWebKit/537.36 (KHTML, like Gecko) Chrome/103.0.0.0 Safari/537.36" etag="RguVAo1muHfCLMDsEC0V" version="20.2.0" type="github">
  <diagram id="2KIT96QI7-xPNKFdnTv3" name="Halaman-1">
    <mxGraphModel dx="1422" dy="786" grid="1" gridSize="10" guides="1" tooltips="1" connect="1" arrows="1" fold="1" page="1" pageScale="1" pageWidth="827" pageHeight="1169" math="0" shadow="0">
      <root>
        <mxCell id="0" />
        <mxCell id="1" parent="0" />
        <mxCell id="y96FYoVAzyEVzs2pSNnv-1" value="" style="rounded=0;whiteSpace=wrap;html=1;fillColor=#3BD8FF;" vertex="1" parent="1">
          <mxGeometry x="249" y="106" width="511" height="534" as="geometry" />
        </mxCell>
        <mxCell id="y96FYoVAzyEVzs2pSNnv-2" value="Actor" style="shape=umlActor;verticalLabelPosition=bottom;verticalAlign=top;html=1;outlineConnect=0;strokeColor=#3BD8FF;fillColor=#3BD8FF;" vertex="1" parent="1">
          <mxGeometry x="90" y="190" width="30" height="60" as="geometry" />
        </mxCell>
      </root>
    </mxGraphModel>
  </diagram>
</mxfile>
